<?xml version="1.0" standalone="no"?><svg xmlns="http://www.w3.org/2000/svg" viewBox="0 0 1440 320"><path fill="#f5f5f5" fill-opacity="10.13" d="M0,192L17.1,170.7C34.3,149,69,107,103,112C137.1,117,171,171,206,208C240,245,274,267,309,272C342.9,277,377,267,411,256C445.7,245,480,235,514,218.7C548.6,203,583,181,617,186.7C651.4,192,686,224,720,245.3C754.3,267,789,277,823,261.3C857.1,245,891,203,926,186.7C960,171,994,181,1029,181.3C1062.9,181,1097,171,1131,181.3C1165.7,192,1200,224,1234,202.7C1268.6,181,1303,107,1337,106.7C1371.4,107,1406,181,1423,218.7L1440,256L1440,320L1422.9,320C1405.7,320,1371,320,1337,320C1302.9,320,1269,320,1234,320C1200,320,1166,320,1131,320C1097.1,320,1063,320,1029,320C994.3,320,960,320,926,320C891.4,320,857,320,823,320C788.6,320,754,320,720,320C685.7,320,651,320,617,320C582.9,320,549,320,514,320C480,320,446,320,411,320C377.1,320,343,320,309,320C274.3,320,240,320,206,320C171.4,320,137,320,103,320C68.6,320,34,320,17,320L0,320Z"></path></svg>