<?xml version="1.0" standalone="no"?><svg xmlns="http://www.w3.org/2000/svg" viewBox="0 0 1440 320"><path fill="#f5f5f5" fill-opacity="1" d="M0,192L24,208C48,224,96,256,144,261.3C192,267,240,245,288,218.7C336,192,384,160,432,165.3C480,171,528,213,576,229.3C624,245,672,235,720,202.7C768,171,816,117,864,122.7C912,128,960,192,1008,224C1056,256,1104,256,1152,245.3C1200,235,1248,213,1296,197.3C1344,181,1392,171,1416,165.3L1440,160L1440,320L1416,320C1392,320,1344,320,1296,320C1248,320,1200,320,1152,320C1104,320,1056,320,1008,320C960,320,912,320,864,320C816,320,768,320,720,320C672,320,624,320,576,320C528,320,480,320,432,320C384,320,336,320,288,320C240,320,192,320,144,320C96,320,48,320,24,320L0,320Z"></path></svg>